<?xml version="1.0" encoding="UTF-8" standalone="no"?>
<!-- Created with Inkscape (http://www.inkscape.org/) -->

<svg
   xmlns:dc="http://purl.org/dc/elements/1.1/"
   xmlns:cc="http://creativecommons.org/ns#"
   xmlns:rdf="http://www.w3.org/1999/02/22-rdf-syntax-ns#"
   xmlns:svg="http://www.w3.org/2000/svg"
   xmlns="http://www.w3.org/2000/svg"
   xmlns:sodipodi="http://sodipodi.sourceforge.net/DTD/sodipodi-0.dtd"
   xmlns:inkscape="http://www.inkscape.org/namespaces/inkscape"
   width="105.47649mm"
   height="46.566666mm"
   viewBox="0 0 105.47649 46.566666"
   version="1.1"
   id="svg174"
   inkscape:version="0.92.5 (2060ec1f9f, 2020-04-08)"
   sodipodi:docname="robopro-logo.svg">
  <defs
     id="defs168" />
  <sodipodi:namedview
     id="base"
     pagecolor="#ffffff"
     bordercolor="#666666"
     borderopacity="1.0"
     inkscape:pageopacity="0.0"
     inkscape:pageshadow="2"
     inkscape:zoom="1.4"
     inkscape:cx="396.91175"
     inkscape:cy="-10.453774"
     inkscape:document-units="mm"
     inkscape:current-layer="layer1"
     showgrid="false"
     inkscape:window-width="1920"
     inkscape:window-height="1051"
     inkscape:window-x="0"
     inkscape:window-y="0"
     inkscape:window-maximized="1" />
  <metadata
     id="metadata171">
    <rdf:RDF>
      <cc:Work
         rdf:about="">
        <dc:format>image/svg+xml</dc:format>
        <dc:type
           rdf:resource="http://purl.org/dc/dcmitype/StillImage" />
        <dc:title />
      </cc:Work>
    </rdf:RDF>
  </metadata>
  <g
     inkscape:label="Layer 1"
     inkscape:groupmode="layer"
     id="layer1"
     transform="translate(-47.803424,-33.32381)">
    <path
       d="M 47.803424,33.32381 V 79.890476 H 153.27991 V 33.32381 Z"
       style="fill:#46ab27;fill-rule:evenodd;stroke-width:0.46579149"
       id="path114"
       inkscape:connector-curvature="0" />
    <g
       transform="matrix(0.4657915,0,0,0.4657915,-99.749133,-291.05019)"
       id="Layer1004">
      <path
         d="m 431.4412,748.3326 c 0.1122,0.7959 0.4869,1.5259 0.8753,2.0245 0.832,1.0685 4.0029,2.5592 5.2894,3.2047 4.2391,2.1267 8.7011,4.6632 12.9792,6.8408 0.6193,0.3152 1.2171,0.7165 1.9052,0.9271 1.9455,0.5946 2.9246,-0.18 4.3489,-0.8775 1.2345,-0.6046 2.4887,-1.2863 3.7167,-1.9487 l 11.174,-5.8948 c 1.2634,-0.6843 2.6913,-1.2217 3.4461,-2.2171 1.1597,-1.5293 0.9576,-2.5525 0.9576,-4.733 0,-2.3268 0.106,-15.8934 -0.0368,-16.9784 -0.2231,-1.6978 -1.2699,-2.7049 -2.4436,-3.3033 -3.6428,-1.857 -7.3912,-3.9636 -11.1118,-5.8733 -1.2153,-0.6239 -2.4861,-1.2798 -3.7046,-1.9557 -0.6199,-0.3438 -1.212,-0.6464 -1.8562,-0.9765 -0.5937,-0.3042 -1.2309,-0.7057 -1.9067,-0.9277 -1.9523,-0.6407 -3.0434,0.2182 -4.4181,0.8716 -1.2507,0.5945 -2.4723,1.3091 -3.7037,1.9572 -2.4922,1.3117 -4.9482,2.6511 -7.4674,3.9372 -1.2138,0.6197 -2.492,1.2786 -3.708,1.9562 -1.3713,0.7642 -2.556,1.16 -3.4433,2.2175 -1.0789,1.2859 -0.9413,2.7898 -0.9413,4.7609 0,2.3731 -0.1138,15.8359 0.0491,16.9883 z m 11.2287,-8.3746 v 3.9102 h -3.3608 V 733.091 h 4.5996 c 1.1473,0 2.0196,0.1319 2.6175,0.3958 0.5953,0.2639 1.0693,0.6652 1.4192,1.2091 0.3501,0.5413 0.5252,1.15 0.5252,1.8233 0,1.0287 -0.3582,1.8581 -1.0719,2.4908 -0.7136,0.6329 -1.6669,0.948 -2.8598,0.948 z m -0.0484,-2.3105 h 1.0988 c 0.9694,0 1.454,-0.3637 1.454,-1.0907 0,-0.6841 -0.447,-1.026 -1.3438,-1.026 h -1.209 z m 16.6588,6.2207 h -3.6653 l -1.5862,-4.1203 h -1.0179 v 4.1203 h -3.3123 V 733.091 h 5.6283 c 1.2414,0 2.2055,0.2908 2.8922,0.8725 0.6868,0.5816 1.0287,1.3491 1.0287,2.3024 0,0.6221 -0.1265,1.1715 -0.3797,1.6481 -0.253,0.4767 -0.7648,0.8967 -1.5377,1.2604 z m -6.2694,-6.4146 h 1.4139 c 0.4147,0 0.7485,-0.0863 1.0017,-0.2614 0.2531,-0.1748 0.3797,-0.4308 0.3797,-0.7701 0,-0.692 -0.4228,-1.0368 -1.2711,-1.0368 h -1.5242 z m 12.3662,6.5763 c -1.5161,0 -2.7522,-0.5037 -3.7082,-1.5082 -0.956,-1.0045 -1.4328,-2.3483 -1.4328,-4.0314 0,-1.6076 0.4578,-2.938 1.3708,-3.9882 0.9129,-1.0476 2.1812,-1.5728 3.8025,-1.5728 1.4999,0 2.7253,0.4955 3.6706,1.4838 0.9452,0.9884 1.4164,2.3079 1.4164,3.9587 0,1.71 -0.4765,3.0808 -1.43,4.1123 -0.9533,1.0314 -2.1813,1.5458 -3.6893,1.5458 z m -0.0134,-2.4399 c 0.56,0 0.9639,-0.2451 1.2091,-0.7325 0.245,-0.4874 0.3688,-1.3788 0.3688,-2.6742 0,-1.877 -0.5063,-2.8141 -1.5161,-2.8141 -1.0905,0 -1.6346,1.069 -1.6346,3.2099 0,2.0065 0.5252,3.0109 1.5728,3.0109 z"
         style="fill:#ffffff;fill-rule:evenodd"
         id="path116"
         inkscape:connector-curvature="0" />
      <path
         d="m 337.4489,753.2309 v -28.3726 c 0.1187,-1.8467 1.5667,-4.1205 5.0106,-3.9724 v -10e-4 h 8.0119 c 3.5323,0 6.4035,1.0193 8.6134,3.0577 1.1178,1.0311 1.9602,2.2186 2.527,3.5623 0.5628,1.3344 0.8443,2.7933 0.8443,4.3767 0,1.6033 -0.2794,3.0746 -0.8382,4.4138 -0.5643,1.3524 -1.4066,2.5501 -2.527,3.5932 -1.114,1.0371 -2.4024,1.8139 -3.8649,2.3301 -1.4325,0.5055 -3.0174,0.7584 -4.7546,0.7584 h -6.0491 v 10.2554 c -0.0778,1.8586 -1.6089,3.3415 -3.4866,3.3415 -1.8782,0 -3.4096,-1.4836 -3.4868,-3.3428 z m 6.9734,-16.8323 h 5.9502 c 0.8551,0 1.5986,-0.1074 2.2301,-0.3223 0.5853,-0.199 1.084,-0.493 1.4962,-0.8816 0.8238,-0.7767 1.2357,-1.8648 1.2357,-3.264 0,-1.3713 -0.416,-2.4552 -1.2479,-3.2515 -0.4134,-0.3957 -0.9102,-0.6938 -1.49,-0.894 -0.6224,-0.215 -1.3638,-0.3224 -2.2241,-0.3224 h -5.9502 z m 19.2183,2.3503 c -0.0499,-2.5213 0.3717,-4.8737 1.265,-7.0573 0.8977,-2.1944 2.2591,-4.1952 4.0839,-6.0021 1.8317,-1.8137 3.8427,-3.1668 6.0331,-4.0592 2.1826,-0.8892 4.5393,-1.3169 7.0696,-1.2833 2.514,-0.0336 4.8624,0.3941 7.045,1.2833 2.188,0.8914 4.2053,2.2425 6.0518,4.0531 1.8457,1.8099 3.2214,3.8107 4.127,6.0021 0.9015,2.1819 1.3273,4.5364 1.2774,7.0634 0.0499,2.5271 -0.3759,4.8816 -1.2774,7.0635 -0.9056,2.1915 -2.2814,4.1923 -4.127,6.0021 -1.8466,1.8107 -3.8639,3.1617 -6.0518,4.0531 -2.1792,0.8879 -4.5237,1.3156 -7.033,1.2835 -2.5183,0.0516 -4.8686,-0.368 -7.0507,-1.2588 -2.1878,-0.8931 -4.201,-2.2545 -6.0393,-4.0839 -1.8357,-1.8267 -3.2032,-3.8337 -4.1024,-6.0207 -0.8975,-2.1829 -1.3212,-4.5293 -1.2712,-7.0388 z m 29.8428,-0.0737 c 0.0292,-1.6358 -0.2286,-3.1476 -0.7734,-4.535 -0.5413,-1.3785 -1.3725,-2.6429 -2.4935,-3.793 -1.1193,-1.1484 -2.3447,-1.9983 -3.6756,-2.5492 -1.3358,-0.553 -2.7941,-0.815 -4.3748,-0.786 l -0.0244,0.006 c -1.6531,0 -3.1505,0.2744 -4.4918,0.8231 -1.3355,0.5463 -2.5486,1.3756 -3.6386,2.4874 -1.0841,1.1059 -1.8969,2.3497 -2.4379,3.7313 -0.5444,1.3902 -0.8167,2.9369 -0.8167,4.6397 0,1.7078 0.2723,3.2606 0.8167,4.6581 0.5403,1.3869 1.3551,2.643 2.444,3.7683 1.0857,1.1219 2.3007,1.9614 3.6447,2.5184 1.3439,0.5569 2.8371,0.8354 4.4796,0.8354 l 0.0244,0.006 c 1.5756,0.0289 3.0319,-0.2351 4.3687,-0.7921 1.3353,-0.5564 2.5626,-1.4124 3.6817,-2.5678 1.122,-1.1584 1.9532,-2.431 2.4935,-3.8177 0.5449,-1.3987 0.8027,-2.9268 0.7734,-4.5844 z m 10.8636,-13.8718 h 0.004 v -0.008 c 0,-2.1494 2.2426,-3.8932 5.0158,-3.907 v -0.004 h 14.0056 v 0.006 h 0.007 c 1.8165,0 3.2892,1.4726 3.2892,3.2892 0,1.7469 -1.362,3.1756 -3.082,3.2826 h -12.2661 v 6.7619 h 5.6043 c 1.8131,0 3.4619,0.2529 4.9463,0.7585 1.5232,0.5188 2.8589,1.2997 4.0069,2.3425 1.1558,1.0499 2.025,2.2518 2.6073,3.6056 0.5793,1.347 0.869,2.8265 0.869,4.4383 0,3.3234 -1.1588,6.0377 -3.4763,8.1427 -1.148,1.0428 -2.4837,1.8237 -4.0069,2.3425 -1.4844,0.5056 -3.1332,0.7585 -4.9463,0.7585 h -7.5478 v -0.008 c -2.2803,-0.0116 -5.065,-1.7273 -5.065,-4.2963 z m 6.9734,25.2318 h 5.5549 c 0.9104,0 1.7032,-0.1136 2.3783,-0.3409 0.6307,-0.2122 1.1748,-0.5288 1.6319,-0.9493 0.4515,-0.4154 0.7868,-0.8874 1.0057,-1.4157 v -0.006 c 0.2275,-0.5491 0.3414,-1.184 0.3414,-1.9042 0,-0.7243 -0.1139,-1.3611 -0.3414,-1.9102 -0.2189,-0.5284 -0.5542,-1.0004 -1.0057,-1.4157 -0.4571,-0.4206 -1.0012,-0.7372 -1.6319,-0.9494 -0.6751,-0.2272 -1.4679,-0.3409 -2.3783,-0.3409 h -5.5549 z"
         style="fill:#ffffff;fill-rule:evenodd"
         id="path118"
         inkscape:connector-curvature="0" />
      <path
         d="m 520.2331,749.2963 0.1209,0.0263 -15.6616,23.27 c 2.9221,0.0505 5.8819,0.003 8.8081,0.003 1.3178,0 2.7762,-0.2439 3.772,0.6617 1.0034,0.9126 0.7896,2.2528 0.7868,3.5542 -0.002,0.9617 -0.005,1.9241 -0.006,2.8863 h -44.599 c 0.004,-1.1801 0.007,-2.3615 0.003,-3.5409 -0.004,-1.3685 -0.0961,-2.419 1.1915,-3.2135 0.8512,-0.5252 2.9663,-0.3481 4.0128,-0.3481 0.9842,-2e-4 8.4266,0.1235 8.702,-0.1012 l 12.9741,-18.8368 c 0.5331,-0.9383 1.1002,-1.8629 1.6357,-2.8007 0.3103,-0.5434 1.2943,-2.3712 1.6226,-2.7173 0.5648,0.6031 0.8135,0.9427 1.4661,1.5153 2.9966,2.6297 7.7601,3.2771 11.5092,1.8298 1.0846,-0.4186 2.8752,-1.3628 3.6615,-2.1884 z"
         style="fill:#ffffff;fill-rule:evenodd"
         id="path120"
         inkscape:connector-curvature="0" />
      <path
         d="m 477.6087,731.3542 h 0.008 c 1.0186,0.003 6.0637,-9e-4 7.0822,-2e-4 0.88,6e-4 1.8204,-0.1001 2.5686,0.456 0.9128,0.6785 0.7772,1.0842 1.0712,1.9907 l 12.8594,0.0363 c -0.4907,1.8279 -1.073,2.3459 -1.01,4.9802 0.0643,2.6848 1.0012,4.4753 1.0023,4.9181 -1.269,-0.0384 -12.4869,-0.0825 -12.8008,0.0548 -0.1734,0.1414 -0.2502,2.1355 -2.1979,2.3904 -1.1641,0.1524 -7.2902,0.043 -8.5828,0.0403 z"
         style="fill:#ffffff;fill-rule:evenodd"
         id="path122"
         inkscape:connector-curvature="0" />
      <path
         d="m 513.8718,733.3273 c -2.9904,-0.4272 -5.7761,1.6793 -6.212,4.6578 -0.4357,2.9772 1.6613,5.8193 4.6445,6.2536 2.9902,0.4352 5.8218,-1.6758 6.258,-4.6596 0.4416,-3.0219 -1.6822,-5.8222 -4.6905,-6.2518 z m 0.3983,-3.9043 c 5.2205,0.706 8.8751,5.3107 8.2036,10.5773 -0.6561,5.146 -5.4335,8.8404 -10.5866,8.147 -5.1632,-0.6947 -8.7902,-5.385 -8.1378,-10.566 0.6422,-5.0999 5.3932,-8.8516 10.5208,-8.1583 z"
         style="fill:#ffffff;fill-rule:evenodd"
         id="path124"
         inkscape:connector-curvature="0" />
      <path
         d="m 515.7148,739.0971 c -0.3298,3.297 -5.5283,2.9477 -5.2158,-0.5737 0.3014,-3.3947 5.5729,-2.9953 5.2158,0.5737 z"
         style="fill:#ffffff;fill-rule:evenodd"
         id="path126"
         inkscape:connector-curvature="0" />
      <path
         d="m 520.354,749.3225 -0.1209,-0.0262 0.2239,-0.2064 c 0.007,0.3588 -0.0142,0.1548 -0.103,0.2326 z"
         style="fill:#ffffff;fill-rule:evenodd"
         id="path128"
         inkscape:connector-curvature="0" />
      <path
         d="m 485.0578,752.0219 c 0.1526,2.0923 -1.3316,2.9023 -2.8834,3.7733 l -11.9889,6.7727 c -1.2276,0.6942 -2.8971,1.511 -4.015,2.286 -3.6503,2.5302 -7.1627,-1.8526 -4.667,-4.804 0.8731,-1.0324 15.2624,-8.3823 16.0318,-9.2252 l 0.1229,-10.76 7.4046,0.0886 z"
         style="fill:#ffffff;fill-rule:evenodd"
         id="path130"
         inkscape:connector-curvature="0" />
      <path
         d="m 485.0578,725.0137 c 0.1526,-2.0923 -1.3316,-2.9023 -2.8834,-3.7733 l -11.9889,-6.7727 c -1.2276,-0.6942 -2.8971,-1.511 -4.015,-2.286 -3.6503,-2.5302 -7.1627,1.8526 -4.667,4.804 0.8731,1.0324 15.2624,8.3823 16.0318,9.2252 l 0.1229,10.76 7.4046,-0.0886 z"
         style="fill:#ffffff;fill-rule:evenodd"
         id="path132"
         inkscape:connector-curvature="0" />
    </g>
  </g>
</svg>
